# xmcd CD database file
# Copyright (C) 1993-1998 Ti Kan
#
# Track frame offsets:
#  150
#  24052
#  47580
#  60627
#  85100
#  110180
#  126042
#  145587
#  170502
#  194612
#
# Disc length: 2838 seconds
#
# Revision: 1
# Processed by: cddbd v1.4b41PL1 Copyright (c) Steve Scherf et al.
# Submitted via: CDWizzard Release:4.31
#
DISCID=810b140a
DTITLE=Blossom Dearie - Et Tu Bruce - Volume VIII
DYEAR=1900
DGENRE=
TTITLE0=Hey John
TTITLE1=You Have Lived In Autumn
TTITLE2=Alice In Wonderland
TTITLE3=I Won't Dance
TTITLE4=The Riviera
TTITLE5=Someone's Been Sending Me Flowers
TTITLE6=Winchester In Apple Blossom Time
TTITLE7=Bruce
TTITLE8=Inside A Silent Tear
TTITLE9=Satin Doll
EXTD=
EXTT0=
EXTT1=
EXTT2=
EXTT3=
EXTT4=
EXTT5=
EXTT6=
EXTT7=
EXTT8=
EXTT9=
PLAYORDER=
